<svg version="1.1" id="Layer_1" xmlns="http://www.w3.org/2000/svg" xmlns:xlink="http://www.w3.org/1999/xlink" x="0px" y="0px"
	 width="100%" viewBox="0 0 1899 626" enable-background="new 0 0 1899 626" xml:space="preserve">
<path fill="#FFFFFF" opacity="1.000000" stroke="none" 
	d="
M1900.000000,600.000000 
	C1900.000000,608.997925 1900.000000,617.995789 1900.000000,626.996826 
	C1327.635742,627.000000 755.271484,627.000000 182.610596,626.598633 
	C189.873245,625.131592 197.526596,624.505920 204.973434,622.914062 
	C223.981033,618.850891 241.596878,611.336182 258.141724,601.056824 
	C274.276154,591.032593 287.076172,577.344116 300.384857,564.158691 
	C304.908173,559.677368 307.177094,554.614075 307.125916,548.050781 
	C307.057831,539.320862 303.473450,532.897888 295.934021,529.077271 
	C288.477875,525.298828 280.570007,525.693054 273.935669,530.770203 
	C267.802277,535.463989 262.267883,541.036987 256.944946,546.671753 
	C248.110168,556.024048 237.991699,563.680664 226.708496,569.613159 
	C201.127853,583.062866 174.035019,587.240173 145.477463,582.047180 
	C120.349754,577.477844 98.915054,565.719299 80.932625,548.075439 
	C73.251503,540.538940 66.849251,531.441589 61.049633,522.302307 
	C51.163464,506.723297 45.622070,489.325348 44.180103,470.955872 
	C43.473804,461.958191 44.400917,452.792145 45.062359,443.736877 
	C45.999512,430.907196 49.996777,418.755371 55.450607,407.270172 
	C64.460014,388.297333 77.481277,372.494141 94.489075,359.881744 
	C112.405418,346.595642 132.424957,338.754578 154.360687,336.168091 
	C165.329529,334.874756 176.508850,334.996307 187.585556,335.123718 
	C194.478958,335.203003 199.886932,333.327515 204.532608,328.113739 
	C209.827225,322.171722 211.769348,313.399078 208.445053,305.959290 
	C204.887085,297.996521 199.211807,292.932831 189.935654,292.988495 
	C174.627869,293.080353 159.373138,292.958862 144.201859,290.087067 
	C121.886490,285.862976 102.500809,275.861176 85.657059,261.000946 
	C71.842110,248.812836 61.152115,234.199921 53.949867,217.054520 
	C44.294773,194.069977 41.375534,170.474777 45.944805,145.902527 
	C52.321262,111.611717 70.508354,84.877983 98.758667,65.214752 
	C114.716415,54.107586 132.580505,46.327869 152.370758,45.140633 
	C164.644058,44.404350 177.203705,43.684326 189.275391,45.435177 
	C208.404968,48.209694 225.871750,56.090199 241.529663,67.774651 
	C247.193665,72.001320 253.520889,74.339508 261.010620,72.087387 
	C269.418213,69.559273 274.591766,64.095680 276.509186,55.879402 
	C278.134888,48.913185 276.915588,42.007072 271.360870,37.024845 
	C266.685242,32.831150 261.517365,29.067720 256.162292,25.772036 
	C238.918091,15.159431 220.448578,7.517831 200.403214,4.002319 
	C194.604965,2.985437 188.801224,1.999905 183.000000,1.000000 
	C755.224976,1.000000 1327.449951,1.000000 1900.000000,1.000000 
	C1900.000000,145.697418 1900.000000,290.395081 1899.606689,435.400238 
	C1898.809570,433.142365 1898.305786,430.588135 1898.017822,428.009796 
	C1896.213623,411.854858 1891.368408,396.529480 1884.378174,381.993591 
	C1874.684570,361.836029 1861.489258,344.375336 1843.369141,330.766418 
	C1818.930298,312.411682 1791.903564,304.301971 1761.342041,307.912384 
	C1746.060913,309.717651 1731.876099,314.375610 1718.660034,322.055267 
	C1698.389893,333.833923 1682.810791,350.292358 1670.954590,370.417114 
	C1657.673706,392.960236 1650.627075,417.498016 1649.236450,443.414185 
	C1648.552124,456.168091 1649.160400,469.256836 1651.296021,481.835419 
	C1654.637329,501.515259 1661.204834,520.277710 1671.809204,537.538574 
	C1684.802002,558.687378 1701.492676,575.786438 1723.655151,587.182190 
	C1742.476562,596.860046 1762.306396,600.976501 1783.661255,599.187134 
	C1803.014038,597.565552 1820.452637,591.287842 1836.451050,580.844604 
	C1843.700439,576.112427 1850.122925,570.113464 1857.216553,564.452881 
	C1857.216553,576.328674 1857.216553,588.065552 1857.216553,600.000000 
	C1871.722046,600.000000 1885.860962,600.000000 1900.000000,600.000000 
M580.000000,295.500000 
	C580.000000,271.742096 580.000000,247.984207 580.000000,224.281494 
	C565.698975,224.281494 551.962463,224.281494 537.664062,224.281494 
	C537.664062,263.693420 537.664062,302.826019 537.664062,342.856689 
	C535.843323,341.173248 534.865723,340.066589 533.698425,339.222382 
	C524.796326,332.783936 516.377625,325.453552 506.825439,320.182129 
	C484.179138,307.684662 459.839355,304.162933 434.265381,308.941437 
	C414.104187,312.708527 396.346741,321.499573 380.984833,334.703918 
	C363.841309,349.439636 350.957214,367.479309 342.068665,388.427368 
	C333.726624,408.087494 330.192780,428.671783 329.092163,449.775787 
	C328.811279,455.160858 329.386810,460.640259 330.060547,466.014648 
	C331.311279,475.991425 332.081299,486.138062 334.556274,495.829681 
	C340.232574,518.057312 350.332916,538.127502 365.211487,555.889587 
	C380.314880,573.920044 398.539032,587.150146 420.874481,594.300842 
	C437.619324,599.661743 454.713745,601.294434 472.345917,598.170837 
	C488.657013,595.281372 503.667542,589.707703 517.188599,580.274292 
	C524.282532,575.324951 531.001221,569.837708 538.269897,564.303589 
	C538.269897,576.361633 538.269897,588.106201 538.269897,599.684082 
	C552.370850,599.684082 566.108154,599.684082 580.000000,599.684082 
	C580.000000,498.412170 580.000000,397.456085 580.000000,295.500000 
M614.999939,487.454651 
	C616.077515,492.163940 616.814270,496.982849 618.288086,501.564697 
	C627.824951,531.212952 643.231323,556.903320 668.480835,576.042480 
	C688.587280,591.283264 711.256775,599.115173 736.321350,599.871704 
	C742.626526,600.062073 748.981689,598.687378 755.309998,597.996582 
	C767.651489,596.649475 779.131409,592.274231 789.833496,586.441528 
	C804.838135,578.263794 817.939392,567.445190 828.549133,553.897400 
	C832.076111,549.393799 835.179993,544.558777 838.489258,539.858337 
	C826.454956,531.199402 815.076843,523.012634 804.462830,515.375671 
	C798.441528,522.310974 793.105957,529.380981 786.838623,535.496033 
	C770.273499,551.658386 750.704041,559.567383 727.153748,556.051880 
	C707.388550,553.101379 691.913757,542.582031 679.631165,527.819946 
	C665.446960,510.772308 657.788269,490.490601 655.093567,467.900238 
	C724.058289,467.900238 792.959473,467.900238 861.659851,467.900238 
	C862.140625,462.976898 863.154297,458.540802 862.882568,454.184906 
	C862.252319,444.082428 861.401062,433.959503 859.918701,423.951569 
	C856.792969,402.848358 849.284546,383.223083 837.665771,365.382965 
	C825.847168,347.235779 810.953064,331.985809 791.817688,321.408112 
	C770.631714,309.696899 748.114319,304.800476 723.811279,307.841034 
	C713.272339,309.159607 703.231384,311.733337 693.632568,315.912903 
	C665.409729,328.201843 644.934265,348.757019 630.631409,375.796753 
	C617.789062,400.075470 611.116333,425.791840 611.978516,453.355713 
	C612.129578,458.184174 611.622620,463.058563 612.093567,467.845398 
	C612.711243,474.123566 613.997925,480.335876 614.999939,487.454651 
M1198.923462,340.597809 
	C1194.157837,345.688904 1188.884277,350.397461 1184.712646,355.935883 
	C1164.240967,383.115356 1154.577148,414.224609 1153.127930,447.886963 
	C1152.360352,465.715668 1154.928833,483.267395 1159.887695,500.544464 
	C1166.085083,522.136108 1176.126709,541.610535 1190.990234,558.300171 
	C1208.665527,578.147156 1230.073364,592.056824 1256.666260,597.421875 
	C1271.342041,600.382690 1285.978271,600.734375 1300.414795,597.680481 
	C1330.874512,591.237244 1355.046997,574.424805 1373.564575,549.755859 
	C1391.815674,525.442017 1401.350830,497.507904 1403.808960,467.415619 
	C1405.148438,451.016479 1404.664917,434.377563 1400.894409,418.227203 
	C1392.634277,382.844940 1376.282959,352.303040 1346.560181,330.028290 
	C1321.107422,310.953735 1292.458252,303.392761 1261.251831,308.248047 
	C1237.453247,311.950806 1216.520386,322.633484 1198.923462,340.597809 
M1010.148071,351.028076 
	C1011.829102,351.564575 1013.506958,352.111176 1015.191589,352.636047 
	C1032.138916,357.915924 1045.348022,368.462708 1055.805664,382.423492 
	C1069.617798,400.862579 1077.573242,421.837280 1077.829224,444.836090 
	C1078.383667,494.652679 1078.000000,544.479675 1078.000000,594.302429 
	C1078.000000,596.085632 1078.000000,597.868896 1078.000000,599.780090 
	C1092.507690,599.780090 1106.577393,599.780090 1121.000000,599.780090 
	C1121.000000,597.780090 1121.000000,595.982056 1121.000000,594.184021 
	C1121.000000,547.360657 1121.035278,500.537231 1120.955933,453.713989 
	C1120.945923,447.797241 1120.349976,441.880585 1119.998779,435.965454 
	C1119.168945,421.992065 1115.773071,408.616241 1111.046265,395.472168 
	C1101.921997,370.100616 1087.331055,348.422119 1066.131348,331.884430 
	C1041.839111,312.934113 1014.250671,304.040070 983.013916,307.875946 
	C971.348877,309.308411 960.249512,312.097809 949.656982,317.047241 
	C945.532349,318.974487 941.491699,321.081543 936.866577,323.377899 
	C936.866577,317.536255 936.866577,312.426819 936.866577,307.231995 
	C922.801392,307.231995 909.064697,307.231995 895.214417,307.231995 
	C895.214417,404.854584 895.214417,502.245026 895.214417,599.784302 
	C909.165771,599.784302 922.902161,599.784302 937.000000,599.784302 
	C937.000000,597.781555 937.000000,595.988708 937.000000,594.195923 
	C937.000000,524.377441 936.981445,454.558929 937.083557,384.740601 
	C937.086853,382.489929 937.741211,379.784393 939.084351,378.067047 
	C946.634460,368.414032 956.330383,361.249695 967.329041,356.087036 
	C980.659363,349.829834 994.774780,348.450378 1010.148071,351.028076 
M1604.960815,443.406342 
	C1621.373779,398.116364 1637.786621,352.826385 1654.393921,307.000000 
	C1643.027100,307.000000 1632.232910,307.000000 1621.438721,307.000000 
	C1608.661987,307.000000 1608.800537,307.050201 1604.472046,319.003601 
	C1591.549194,354.690002 1578.501465,390.331146 1565.514160,425.994263 
	C1554.828613,455.337585 1544.165894,484.689240 1533.477905,514.031738 
	C1531.502808,519.454041 1529.456055,524.850281 1527.442505,530.258545 
	C1526.896729,530.264587 1526.350952,530.270630 1525.805176,530.276611 
	C1498.718872,455.883057 1471.632568,381.489532 1444.615479,307.286194 
	C1429.300659,307.286194 1414.236572,307.286194 1398.911987,307.286194 
	C1434.513916,405.068726 1469.992798,502.513123 1505.487061,599.999939 
	C1518.709229,599.999939 1531.702271,600.088013 1544.690430,599.875732 
	C1546.129883,599.852234 1548.368652,598.420349 1548.844971,597.128418 
	C1560.535645,565.423584 1572.052002,533.654297 1583.568848,501.885376 
	C1590.555786,482.612061 1597.491333,463.320129 1604.960815,443.406342 
z"/>
<path fill="#000000" opacity="1.000000" stroke="none" 
	d="
M182.531342,1.000000 
	C188.801224,1.999905 194.604965,2.985437 200.403214,4.002319 
	C220.448578,7.517831 238.918091,15.159431 256.162292,25.772036 
	C261.517365,29.067720 266.685242,32.831150 271.360870,37.024845 
	C276.915588,42.007072 278.134888,48.913185 276.509186,55.879402 
	C274.591766,64.095680 269.418213,69.559273 261.010620,72.087387 
	C253.520889,74.339508 247.193665,72.001320 241.529663,67.774651 
	C225.871750,56.090199 208.404968,48.209694 189.275391,45.435177 
	C177.203705,43.684326 164.644058,44.404350 152.370758,45.140633 
	C132.580505,46.327869 114.716415,54.107586 98.758667,65.214752 
	C70.508354,84.877983 52.321262,111.611717 45.944805,145.902527 
	C41.375534,170.474777 44.294773,194.069977 53.949867,217.054520 
	C61.152115,234.199921 71.842110,248.812836 85.657059,261.000946 
	C102.500809,275.861176 121.886490,285.862976 144.201859,290.087067 
	C159.373138,292.958862 174.627869,293.080353 189.935654,292.988495 
	C199.211807,292.932831 204.887085,297.996521 208.445053,305.959290 
	C211.769348,313.399078 209.827225,322.171722 204.532608,328.113739 
	C199.886932,333.327515 194.478958,335.203003 187.585556,335.123718 
	C176.508850,334.996307 165.329529,334.874756 154.360687,336.168091 
	C132.424957,338.754578 112.405418,346.595642 94.489075,359.881744 
	C77.481277,372.494141 64.460014,388.297333 55.450607,407.270172 
	C49.996777,418.755371 45.999512,430.907196 45.062359,443.736877 
	C44.400917,452.792145 43.473804,461.958191 44.180103,470.955872 
	C45.622070,489.325348 51.163464,506.723297 61.049633,522.302307 
	C66.849251,531.441589 73.251503,540.538940 80.932625,548.075439 
	C98.915054,565.719299 120.349754,577.477844 145.477463,582.047180 
	C174.035019,587.240173 201.127853,583.062866 226.708496,569.613159 
	C237.991699,563.680664 248.110168,556.024048 256.944946,546.671753 
	C262.267883,541.036987 267.802277,535.463989 273.935669,530.770203 
	C280.570007,525.693054 288.477875,525.298828 295.934021,529.077271 
	C303.473450,532.897888 307.057831,539.320862 307.125916,548.050781 
	C307.177094,554.614075 304.908173,559.677368 300.384857,564.158691 
	C287.076172,577.344116 274.276154,591.032593 258.141724,601.056824 
	C241.596878,611.336182 223.981033,618.850891 204.973434,622.914062 
	C197.526596,624.505920 189.873245,625.131592 182.156967,626.598633 
	C172.979111,627.000000 163.958206,627.000000 154.311920,626.598877 
	C145.791534,625.123596 137.737000,624.712769 130.029755,622.858398 
	C99.727180,615.567566 73.249298,600.899658 50.906811,579.251282 
	C34.691177,563.539368 22.317564,544.890381 13.713708,524.027527 
	C9.946912,514.893677 7.813579,505.081848 5.011159,495.556488 
	C3.590828,490.728821 2.331900,485.853668 1.000000,481.000000 
	C1.000000,469.312439 1.000000,457.624878 1.367061,445.355347 
	C1.489415,443.182251 1.244707,441.591125 1.000000,440.000000 
	C1.000000,439.250000 1.000000,438.500000 1.423303,437.368225 
	C2.701175,433.020844 3.466825,429.033600 4.425663,425.093353 
	C8.650520,407.731659 14.533286,391.075348 23.712000,375.568970 
	C35.512947,355.632568 50.458771,338.668610 69.141975,325.024048 
	C74.381882,321.197266 79.925980,317.787018 85.611694,313.998352 
	C84.420097,313.033051 83.816338,312.494629 83.164192,312.023102 
	C74.008377,305.403107 64.189003,299.525696 55.819618,292.029022 
	C37.459930,275.583832 22.934734,256.021820 14.145408,232.834061 
	C9.906634,221.651474 7.338643,209.837158 3.973133,198.320877 
	C3.058620,195.191544 1.995118,192.105774 0.999998,189.000000 
	C1.000000,177.312439 1.000000,165.624878 1.355496,153.367096 
	C1.473995,151.531250 1.236998,150.265625 1.000000,149.000000 
	C1.000000,148.250000 1.000000,147.500000 1.381406,146.260773 
	C2.174250,144.927368 2.791359,144.122772 2.962790,143.232391 
	C3.878268,138.477493 4.477030,133.653900 5.561677,128.940674 
	C9.584429,111.460167 16.550085,95.164017 26.029699,79.971695 
	C35.595299,64.641579 47.170242,50.919643 61.155056,39.491100 
	C73.505623,29.398087 86.933708,20.884104 101.739990,14.626314 
	C114.982086,9.029624 128.518021,4.702236 142.837494,2.966646 
	C146.582764,2.512701 150.280457,1.666209 154.000000,0.999999 
	C163.354233,1.000000 172.708450,1.000000 182.531342,1.000000 
z"/>
<path fill="#000000" opacity="1.000000" stroke="none" 
	d="
M1900.000000,599.531372 
	C1885.860962,600.000000 1871.722046,600.000000 1857.216553,600.000000 
	C1857.216553,588.065552 1857.216553,576.328674 1857.216553,564.452881 
	C1850.122925,570.113464 1843.700439,576.112427 1836.451050,580.844604 
	C1820.452637,591.287842 1803.014038,597.565552 1783.661255,599.187134 
	C1762.306396,600.976501 1742.476562,596.860046 1723.655151,587.182190 
	C1701.492676,575.786438 1684.802002,558.687378 1671.809204,537.538574 
	C1661.204834,520.277710 1654.637329,501.515259 1651.296021,481.835419 
	C1649.160400,469.256836 1648.552124,456.168091 1649.236450,443.414185 
	C1650.627075,417.498016 1657.673706,392.960236 1670.954590,370.417114 
	C1682.810791,350.292358 1698.389893,333.833923 1718.660034,322.055267 
	C1731.876099,314.375610 1746.060913,309.717651 1761.342041,307.912384 
	C1791.903564,304.301971 1818.930298,312.411682 1843.369141,330.766418 
	C1861.489258,344.375336 1874.684570,361.836029 1884.378174,381.993591 
	C1891.368408,396.529480 1896.213623,411.854858 1898.017822,428.009796 
	C1898.305786,430.588135 1898.809570,433.142365 1899.606689,435.853882 
	C1900.000000,490.354218 1900.000000,544.708435 1900.000000,599.531372 
M1728.063477,367.417023 
	C1717.223877,377.695648 1708.298462,389.298462 1702.343018,403.148132 
	C1691.668823,427.970856 1689.099121,453.409149 1694.889282,479.890869 
	C1701.056763,508.099091 1714.314697,531.414795 1739.402954,546.825317 
	C1757.083984,557.685913 1776.204102,560.254883 1795.809448,553.513062 
	C1819.125366,545.495056 1834.959351,528.548645 1845.404785,506.886353 
	C1856.176392,484.547760 1859.304688,460.713989 1856.073242,436.012024 
	C1854.427856,423.435181 1850.997437,411.450317 1845.520264,400.104706 
	C1837.062622,382.584961 1824.968018,368.090210 1807.847900,358.466583 
	C1792.051025,349.586823 1775.145752,347.555664 1757.501709,351.990417 
	C1746.682373,354.709778 1737.405640,360.328766 1728.063477,367.417023 
z"/>
<path fill="#FFFFFF" opacity="1.000000" stroke="none" 
	d="
M0.999998,189.468658 
	C1.995118,192.105774 3.058620,195.191544 3.973133,198.320877 
	C7.338643,209.837158 9.906634,221.651474 14.145408,232.834061 
	C22.934734,256.021820 37.459930,275.583832 55.819618,292.029022 
	C64.189003,299.525696 74.008377,305.403107 83.164192,312.023102 
	C83.816338,312.494629 84.420097,313.033051 85.611694,313.998352 
	C79.925980,317.787018 74.381882,321.197266 69.141975,325.024048 
	C50.458771,338.668610 35.512947,355.632568 23.712000,375.568970 
	C14.533286,391.075348 8.650520,407.731659 4.425663,425.093353 
	C3.466825,429.033600 2.701175,433.020844 1.423303,436.993225 
	C1.000000,354.645782 1.000000,272.291534 0.999998,189.468658 
z"/>
<path fill="#FFFFFF" opacity="1.000000" stroke="none" 
	d="
M1.000000,481.468658 
	C2.331900,485.853668 3.590828,490.728821 5.011159,495.556488 
	C7.813579,505.081848 9.946912,514.893677 13.713708,524.027527 
	C22.317564,544.890381 34.691177,563.539368 50.906811,579.251282 
	C73.249298,600.899658 99.727180,615.567566 130.029755,622.858398 
	C137.737000,624.712769 145.791534,625.123596 153.843262,626.598877 
	C103.074715,627.000000 52.149433,627.000000 1.000000,627.000000 
	C1.000000,578.645996 1.000000,530.291687 1.000000,481.468658 
z"/>
<path fill="#FFFFFF" opacity="1.000000" stroke="none" 
	d="
M153.531342,0.999999 
	C150.280457,1.666209 146.582764,2.512701 142.837494,2.966646 
	C128.518021,4.702236 114.982086,9.029624 101.739990,14.626314 
	C86.933708,20.884104 73.505623,29.398087 61.155056,39.491100 
	C47.170242,50.919643 35.595299,64.641579 26.029699,79.971695 
	C16.550085,95.164017 9.584429,111.460167 5.561677,128.940674 
	C4.477030,133.653900 3.878268,138.477493 2.962790,143.232391 
	C2.791359,144.122772 2.174250,144.927368 1.381406,145.885773 
	C1.000000,97.737717 1.000000,49.475430 1.000000,1.000000 
	C51.687363,1.000000 102.375023,1.000000 153.531342,0.999999 
z"/>
<path fill="#FFFFFF" opacity="1.000000" stroke="none" 
	d="
M1.000000,440.416656 
	C1.244707,441.591125 1.489415,443.182251 1.367061,444.886688 
	C1.000000,443.611115 1.000000,442.222198 1.000000,440.416656 
z"/>
<path fill="#FFFFFF" opacity="1.000000" stroke="none" 
	d="
M1.000000,149.399979 
	C1.236998,150.265625 1.473995,151.531250 1.355496,152.898438 
	C1.000000,151.933319 1.000000,150.866638 1.000000,149.399979 
z"/>
<path fill="#000000" opacity="1.000000" stroke="none" 
	d="
M580.000000,296.000000 
	C580.000000,397.456085 580.000000,498.412170 580.000000,599.684082 
	C566.108154,599.684082 552.370850,599.684082 538.269897,599.684082 
	C538.269897,588.106201 538.269897,576.361633 538.269897,564.303589 
	C531.001221,569.837708 524.282532,575.324951 517.188599,580.274292 
	C503.667542,589.707703 488.657013,595.281372 472.345917,598.170837 
	C454.713745,601.294434 437.619324,599.661743 420.874481,594.300842 
	C398.539032,587.150146 380.314880,573.920044 365.211487,555.889587 
	C350.332916,538.127502 340.232574,518.057312 334.556274,495.829681 
	C332.081299,486.138062 331.311279,475.991425 330.060547,466.014648 
	C329.386810,460.640259 328.811279,455.160858 329.092163,449.775787 
	C330.192780,428.671783 333.726624,408.087494 342.068665,388.427368 
	C350.957214,367.479309 363.841309,349.439636 380.984833,334.703918 
	C396.346741,321.499573 414.104187,312.708527 434.265381,308.941437 
	C459.839355,304.162933 484.179138,307.684662 506.825439,320.182129 
	C516.377625,325.453552 524.796326,332.783936 533.698425,339.222382 
	C534.865723,340.066589 535.843323,341.173248 537.664062,342.856689 
	C537.664062,302.826019 537.664062,263.693420 537.664062,224.281494 
	C551.962463,224.281494 565.698975,224.281494 580.000000,224.281494 
	C580.000000,247.984207 580.000000,271.742096 580.000000,296.000000 
M493.343079,544.970215 
	C511.624969,532.542114 523.598938,515.263000 530.577942,494.650269 
	C535.947693,478.790558 539.500366,462.414917 536.953613,445.454437 
	C535.372192,434.922760 534.405029,424.125793 531.263306,414.039398 
	C525.631104,395.957550 515.762695,380.145142 501.158203,367.672302 
	C490.007446,358.149170 477.286255,351.388733 462.639465,350.157532 
	C436.442719,347.955505 415.305725,358.067780 398.305267,378.051971 
	C381.939606,397.289917 374.508484,419.885986 372.126801,444.397766 
	C370.885040,457.177643 372.283722,470.032959 375.297882,482.509186 
	C380.678558,504.780762 391.162781,524.333923 408.936523,539.190796 
	C414.640289,543.958557 421.467560,547.548706 428.157196,550.933777 
	C439.954376,556.903442 452.558960,558.376221 465.590607,556.002075 
	C475.357544,554.222717 484.468903,550.841675 493.343079,544.970215 
z"/>
<path fill="#000000" opacity="1.000000" stroke="none" 
	d="
M614.998413,487.015564 
	C613.997925,480.335876 612.711243,474.123566 612.093567,467.845398 
	C611.622620,463.058563 612.129578,458.184174 611.978516,453.355713 
	C611.116333,425.791840 617.789062,400.075470 630.631409,375.796753 
	C644.934265,348.757019 665.409729,328.201843 693.632568,315.912903 
	C703.231384,311.733337 713.272339,309.159607 723.811279,307.841034 
	C748.114319,304.800476 770.631714,309.696899 791.817688,321.408112 
	C810.953064,331.985809 825.847168,347.235779 837.665771,365.382965 
	C849.284546,383.223083 856.792969,402.848358 859.918701,423.951569 
	C861.401062,433.959503 862.252319,444.082428 862.882568,454.184906 
	C863.154297,458.540802 862.140625,462.976898 861.659851,467.900238 
	C792.959473,467.900238 724.058289,467.900238 655.093567,467.900238 
	C657.788269,490.490601 665.446960,510.772308 679.631165,527.819946 
	C691.913757,542.582031 707.388550,553.101379 727.153748,556.051880 
	C750.704041,559.567383 770.273499,551.658386 786.838623,535.496033 
	C793.105957,529.380981 798.441528,522.310974 804.462830,515.375671 
	C815.076843,523.012634 826.454956,531.199402 838.489258,539.858337 
	C835.179993,544.558777 832.076111,549.393799 828.549133,553.897400 
	C817.939392,567.445190 804.838135,578.263794 789.833496,586.441528 
	C779.131409,592.274231 767.651489,596.649475 755.309998,597.996582 
	C748.981689,598.687378 742.626526,600.062073 736.321350,599.871704 
	C711.256775,599.115173 688.587280,591.283264 668.480835,576.042480 
	C643.231323,556.903320 627.824951,531.212952 618.288086,501.564697 
	C616.814270,496.982849 616.077515,492.163940 614.998413,487.015564 
M750.500000,425.000000 
	C772.477722,425.000000 794.455383,425.000000 816.726013,425.000000 
	C810.908264,401.489075 800.227173,381.138214 781.257446,365.825928 
	C770.662720,357.273895 758.502625,351.595215 744.984375,350.128845 
	C721.407715,347.571320 701.602966,356.384491 685.120422,372.714294 
	C674.095764,383.636780 666.678711,397.092773 661.223389,411.557831 
	C659.640808,415.753998 658.829041,420.240845 657.555359,425.000000 
	C688.908569,425.000000 719.204285,425.000000 750.500000,425.000000 
z"/>
<path fill="#000000" opacity="1.000000" stroke="none" 
	d="
M1199.169067,340.325897 
	C1216.520386,322.633484 1237.453247,311.950806 1261.251831,308.248047 
	C1292.458252,303.392761 1321.107422,310.953735 1346.560181,330.028290 
	C1376.282959,352.303040 1392.634277,382.844940 1400.894409,418.227203 
	C1404.664917,434.377563 1405.148438,451.016479 1403.808960,467.415619 
	C1401.350830,497.507904 1391.815674,525.442017 1373.564575,549.755859 
	C1355.046997,574.424805 1330.874512,591.237244 1300.414795,597.680481 
	C1285.978271,600.734375 1271.342041,600.382690 1256.666260,597.421875 
	C1230.073364,592.056824 1208.665527,578.147156 1190.990234,558.300171 
	C1176.126709,541.610535 1166.085083,522.136108 1159.887695,500.544464 
	C1154.928833,483.267395 1152.360352,465.715668 1153.127930,447.886963 
	C1154.577148,414.224609 1164.240967,383.115356 1184.712646,355.935883 
	C1188.884277,350.397461 1194.157837,345.688904 1199.169067,340.325897 
M1317.338623,544.970825 
	C1320.907471,542.135254 1324.675293,539.514404 1328.009277,536.425232 
	C1339.631104,525.656616 1347.807983,512.505737 1353.567627,497.863068 
	C1359.328491,483.217377 1361.512817,467.772552 1361.803223,452.192139 
	C1361.943970,444.643799 1360.271240,437.009918 1358.957520,429.495575 
	C1354.312012,402.924377 1342.143066,380.549805 1320.468994,364.128998 
	C1303.597656,351.346771 1284.594116,346.762238 1263.610229,351.741364 
	C1242.781738,356.683655 1227.581909,369.144745 1215.825073,386.540375 
	C1198.321411,412.439056 1193.163574,441.143250 1197.172607,471.575531 
	C1199.257690,487.402252 1204.478882,502.510773 1213.053223,516.171448 
	C1221.243896,529.220947 1231.668335,540.264893 1245.108521,547.918823 
	C1259.191772,555.938843 1274.472778,559.028625 1290.571167,555.921997 
	C1299.935059,554.114929 1308.792603,550.747742 1317.338623,544.970825 
z"/>
<path fill="#000000" opacity="1.000000" stroke="none" 
	d="
M1009.709595,351.014954 
	C994.774780,348.450378 980.659363,349.829834 967.329041,356.087036 
	C956.330383,361.249695 946.634460,368.414032 939.084351,378.067047 
	C937.741211,379.784393 937.086853,382.489929 937.083557,384.740601 
	C936.981445,454.558929 937.000000,524.377441 937.000000,594.195923 
	C937.000000,595.988708 937.000000,597.781555 937.000000,599.784302 
	C922.902161,599.784302 909.165771,599.784302 895.214417,599.784302 
	C895.214417,502.245026 895.214417,404.854584 895.214417,307.231995 
	C909.064697,307.231995 922.801392,307.231995 936.866577,307.231995 
	C936.866577,312.426819 936.866577,317.536255 936.866577,323.377899 
	C941.491699,321.081543 945.532349,318.974487 949.656982,317.047241 
	C960.249512,312.097809 971.348877,309.308411 983.013916,307.875946 
	C1014.250671,304.040070 1041.839111,312.934113 1066.131348,331.884430 
	C1087.331055,348.422119 1101.921997,370.100616 1111.046265,395.472168 
	C1115.773071,408.616241 1119.168945,421.992065 1119.998779,435.965454 
	C1120.349976,441.880585 1120.945923,447.797241 1120.955933,453.713989 
	C1121.035278,500.537231 1121.000000,547.360657 1121.000000,594.184021 
	C1121.000000,595.982056 1121.000000,597.780090 1121.000000,599.780090 
	C1106.577393,599.780090 1092.507690,599.780090 1078.000000,599.780090 
	C1078.000000,597.868896 1078.000000,596.085632 1078.000000,594.302429 
	C1078.000000,544.479675 1078.383667,494.652679 1077.829224,444.836090 
	C1077.573242,421.837280 1069.617798,400.862579 1055.805664,382.423492 
	C1045.348022,368.462708 1032.138916,357.915924 1015.191589,352.636047 
	C1013.506958,352.111176 1011.829102,351.564575 1009.709595,351.014954 
z"/>
<path fill="#000000" opacity="1.000000" stroke="none" 
	d="
M1604.705322,443.721436 
	C1597.491333,463.320129 1590.555786,482.612061 1583.568848,501.885376 
	C1572.052002,533.654297 1560.535645,565.423584 1548.844971,597.128418 
	C1548.368652,598.420349 1546.129883,599.852234 1544.690430,599.875732 
	C1531.702271,600.088013 1518.709229,599.999939 1505.487061,599.999939 
	C1469.992798,502.513123 1434.513916,405.068726 1398.911987,307.286194 
	C1414.236572,307.286194 1429.300659,307.286194 1444.615479,307.286194 
	C1471.632568,381.489532 1498.718872,455.883057 1525.805176,530.276611 
	C1526.350952,530.270630 1526.896729,530.264587 1527.442505,530.258545 
	C1529.456055,524.850281 1531.502808,519.454041 1533.477905,514.031738 
	C1544.165894,484.689240 1554.828613,455.337585 1565.514160,425.994263 
	C1578.501465,390.331146 1591.549194,354.690002 1604.472046,319.003601 
	C1608.800537,307.050201 1608.661987,307.000000 1621.438721,307.000000 
	C1632.232910,307.000000 1643.027100,307.000000 1654.393921,307.000000 
	C1637.786621,352.826385 1621.373779,398.116364 1604.705322,443.721436 
z"/>
<path fill="#FFFFFF" opacity="1.000000" stroke="none" 
	d="
M1728.370605,367.222290 
	C1737.405640,360.328766 1746.682373,354.709778 1757.501709,351.990417 
	C1775.145752,347.555664 1792.051025,349.586823 1807.847900,358.466583 
	C1824.968018,368.090210 1837.062622,382.584961 1845.520264,400.104706 
	C1850.997437,411.450317 1854.427856,423.435181 1856.073242,436.012024 
	C1859.304688,460.713989 1856.176392,484.547760 1845.404785,506.886353 
	C1834.959351,528.548645 1819.125366,545.495056 1795.809448,553.513062 
	C1776.204102,560.254883 1757.083984,557.685913 1739.402954,546.825317 
	C1714.314697,531.414795 1701.056763,508.099091 1694.889282,479.890869 
	C1689.099121,453.409149 1691.668823,427.970856 1702.343018,403.148132 
	C1708.298462,389.298462 1717.223877,377.695648 1728.370605,367.222290 
z"/>
<path fill="#FFFFFF" opacity="1.000000" stroke="none" 
	d="
M492.970886,545.003296 
	C484.468903,550.841675 475.357544,554.222717 465.590607,556.002075 
	C452.558960,558.376221 439.954376,556.903442 428.157196,550.933777 
	C421.467560,547.548706 414.640289,543.958557 408.936523,539.190796 
	C391.162781,524.333923 380.678558,504.780762 375.297882,482.509186 
	C372.283722,470.032959 370.885040,457.177643 372.126801,444.397766 
	C374.508484,419.885986 381.939606,397.289917 398.305267,378.051971 
	C415.305725,358.067780 436.442719,347.955505 462.639465,350.157532 
	C477.286255,351.388733 490.007446,358.149170 501.158203,367.672302 
	C515.762695,380.145142 525.631104,395.957550 531.263306,414.039398 
	C534.405029,424.125793 535.372192,434.922760 536.953613,445.454437 
	C539.500366,462.414917 535.947693,478.790558 530.577942,494.650269 
	C523.598938,515.263000 511.624969,532.542114 492.970886,545.003296 
z"/>
<path fill="#FFFFFF" opacity="1.000000" stroke="none" 
	d="
M750.000000,425.000000 
	C719.204285,425.000000 688.908569,425.000000 657.555359,425.000000 
	C658.829041,420.240845 659.640808,415.753998 661.223389,411.557831 
	C666.678711,397.092773 674.095764,383.636780 685.120422,372.714294 
	C701.602966,356.384491 721.407715,347.571320 744.984375,350.128845 
	C758.502625,351.595215 770.662720,357.273895 781.257446,365.825928 
	C800.227173,381.138214 810.908264,401.489075 816.726013,425.000000 
	C794.455383,425.000000 772.477722,425.000000 750.000000,425.000000 
z"/>
<path fill="#FFFFFF" opacity="1.000000" stroke="none" 
	d="
M1316.967041,545.003784 
	C1308.792603,550.747742 1299.935059,554.114929 1290.571167,555.921997 
	C1274.472778,559.028625 1259.191772,555.938843 1245.108521,547.918823 
	C1231.668335,540.264893 1221.243896,529.220947 1213.053223,516.171448 
	C1204.478882,502.510773 1199.257690,487.402252 1197.172607,471.575531 
	C1193.163574,441.143250 1198.321411,412.439056 1215.825073,386.540375 
	C1227.581909,369.144745 1242.781738,356.683655 1263.610229,351.741364 
	C1284.594116,346.762238 1303.597656,351.346771 1320.468994,364.128998 
	C1342.143066,380.549805 1354.312012,402.924377 1358.957520,429.495575 
	C1360.271240,437.009918 1361.943970,444.643799 1361.803223,452.192139 
	C1361.512817,467.772552 1359.328491,483.217377 1353.567627,497.863068 
	C1347.807983,512.505737 1339.631104,525.656616 1328.009277,536.425232 
	C1324.675293,539.514404 1320.907471,542.135254 1316.967041,545.003784 
z"/>
</svg>