<svg version="1.1" id="Layer_1" xmlns="http://www.w3.org/2000/svg" xmlns:xlink="http://www.w3.org/1999/xlink" x="0px" y="0px"
	 width="100%" viewBox="0 0 1165 1344" enable-background="new 0 0 1165 1344" xml:space="preserve">
<path fill="#D64699" opacity="1.000000" stroke="none" 
	d="
M393.000000,1.000001 
	C401.020905,1.000000 409.041809,1.000000 417.758484,1.368337 
	C434.032898,3.153286 449.638123,4.328952 465.183685,6.045022 
	C486.573517,8.406235 507.353455,13.836929 527.714294,20.525597 
	C542.767822,25.470778 557.414429,31.694027 572.098877,37.698566 
	C576.302124,39.417309 580.005737,42.358173 583.776489,45.132759 
	C583.572693,47.687229 583.494629,49.847595 583.494324,52.007965 
	C583.487366,99.575066 583.495605,147.142166 583.466370,194.709259 
	C583.465088,196.846222 583.137390,198.983002 582.656982,200.969635 
	C574.155701,194.526489 566.160339,187.947952 557.720459,182.000214 
	C540.222107,169.668732 521.289185,159.895737 501.361938,152.139542 
	C473.151520,141.159317 443.802734,135.342331 413.599884,134.103317 
	C405.187134,133.758209 396.690460,134.312256 388.290283,135.084763 
	C376.686707,136.151871 364.941742,136.916122 353.601349,139.388123 
	C313.335419,148.165314 276.628357,164.730927 243.985397,190.295593 
	C224.886566,205.253036 207.717606,222.036911 192.719254,240.965912 
	C176.973312,260.838409 163.985474,282.458710 153.990356,305.855316 
	C141.526428,335.030914 135.251083,365.531067 134.093079,397.114166 
	C133.802780,405.031799 134.254333,413.035095 135.090103,420.922180 
	C136.402786,433.309753 137.720032,445.752014 140.115372,457.959198 
	C146.886551,492.466522 160.511505,524.425110 179.667877,553.700378 
	C190.778564,570.679993 204.281052,586.094910 216.712631,602.209778 
	C219.526352,605.857178 222.997406,607.135010 227.827301,607.128174 
	C344.323395,606.963623 460.819763,606.999084 577.316101,607.007141 
	C579.479492,607.007324 581.642822,607.114502 583.837280,607.361450 
	C583.868408,607.551086 583.968262,607.922241 583.795044,608.298950 
	C583.577515,650.017029 583.541504,691.358459 583.465027,732.699768 
	C583.461121,734.825439 583.110657,736.950500 582.458862,739.046021 
	C496.167999,739.010864 410.339905,739.004822 324.511810,739.000244 
	C291.513885,738.998474 258.515808,738.960876 225.518402,739.093445 
	C223.448578,739.101807 220.706192,739.847046 219.427368,741.277893 
	C211.193130,750.490845 202.768646,759.607117 195.365112,769.474304 
	C178.977173,791.315430 165.352051,814.788086 154.886475,840.119202 
	C143.527252,867.613098 136.123428,896.120667 134.271744,925.693848 
	C132.920563,947.273132 133.666779,968.943665 137.811417,990.457642 
	C144.327652,1024.282104 157.179886,1055.347168 176.364914,1083.785645 
	C190.237808,1104.349731 205.922058,1123.463501 225.037155,1139.477905 
	C234.608292,1147.496582 244.050690,1155.759155 254.242493,1162.928833 
	C278.959961,1180.317261 305.876526,1193.352295 335.057465,1201.532227 
	C364.611908,1209.816650 394.544342,1213.773438 425.339203,1211.168823 
	C440.773499,1209.863525 455.964386,1207.785645 470.974884,1204.029297 
	C495.146027,1197.980469 518.270874,1189.200562 539.422058,1176.046631 
	C554.411865,1166.724487 568.582214,1156.084839 583.348083,1146.449707 
	C583.548218,1196.865234 583.523682,1246.864380 583.472595,1296.863647 
	C583.470215,1299.186768 583.229858,1301.509644 582.764160,1303.978027 
	C574.378845,1307.758057 566.401733,1311.563232 558.267212,1314.995361 
	C535.614319,1324.552979 512.167603,1331.568481 488.079407,1336.463501 
	C468.261627,1340.490845 448.332336,1343.603394 428.057831,1344.039429 
	C426.365784,1344.075806 424.685669,1344.666748 423.000000,1345.000000 
	C412.979095,1345.000000 402.958221,1345.000000 392.241882,1344.631836 
	C370.938354,1343.782959 350.631470,1341.017822 330.389893,1337.121582 
	C297.732971,1330.834961 266.540802,1320.297241 236.536835,1306.143311 
	C214.389877,1295.695923 193.028854,1283.734497 173.569656,1268.851562 
	C157.643967,1256.671143 141.784836,1244.201782 127.315460,1230.375244 
	C112.525650,1216.242554 99.087440,1200.623901 85.747734,1185.064087 
	C70.987526,1167.847412 58.799828,1148.739258 48.005852,1128.813721 
	C33.989403,1102.939331 22.553354,1075.976318 14.781549,1047.522705 
	C9.162846,1026.952148 4.827360,1006.156067 2.965719,984.876953 
	C2.501255,979.567932 1.665238,974.291443 0.999997,969.000000 
	C1.000000,953.312439 1.000000,937.624878 1.366810,921.244324 
	C7.580470,826.849304 43.337444,745.236450 101.912529,672.944214 
	C98.914787,669.093933 96.055008,665.294556 93.064606,661.600891 
	C75.565193,639.986389 60.841583,616.542419 48.061958,591.921814 
	C30.870977,558.802490 18.016035,524.001526 10.322175,487.453888 
	C5.615538,465.096222 1.981763,442.534088 1.956563,419.559082 
	C1.954896,418.039032 1.333268,416.519684 1.000001,415.000000 
	C1.000000,407.312408 1.000000,399.624847 1.368282,391.241608 
	C2.156768,383.619598 2.348950,376.670135 3.048322,369.772095 
	C4.223795,358.178131 5.030763,346.483429 7.234392,335.070862 
	C11.260608,314.219116 16.672552,293.714447 23.861488,273.640350 
	C34.811199,243.064743 49.262062,214.313324 67.242867,187.360916 
	C79.557823,168.901337 92.722015,151.000748 108.401054,135.193192 
	C121.911774,121.571716 135.116486,107.505791 149.766479,95.195297 
	C164.140671,83.116547 179.934860,72.660736 195.527695,62.116455 
	C214.053741,49.588646 234.067764,39.622494 254.746384,31.224815 
	C280.683990,20.691439 307.323090,12.409245 335.072601,7.784301 
	C352.946716,4.805267 370.787170,2.122544 388.940613,1.957468 
	C390.296539,1.945138 391.647003,1.333199 393.000000,1.000001 
z"/>
<path fill="#05B1E7" opacity="1.000000" stroke="none" 
	d="
M583.100403,1303.832642 
	C583.229858,1301.509644 583.470215,1299.186768 583.472595,1296.863647 
	C583.523682,1246.864380 583.548218,1196.865234 583.299561,1146.441895 
	C583.021179,1146.017700 583.004211,1146.114868 583.382202,1146.201294 
	C584.056152,1145.885498 584.352112,1145.483398 584.925415,1144.934326 
	C585.600769,1144.259155 585.923462,1143.646606 586.407776,1143.215454 
	C598.054565,1132.845703 609.857849,1122.646851 621.339050,1112.097412 
	C631.922119,1102.373047 642.300842,1092.415649 652.519775,1082.308472 
	C665.857910,1069.115967 679.043518,1055.765503 692.117676,1042.311157 
	C702.137207,1032.000122 711.846741,1021.388672 721.761292,1010.974792 
	C729.155457,1003.208313 736.785400,995.663269 744.081116,987.806763 
	C755.240845,975.789062 766.178894,963.565857 777.255371,951.470459 
	C789.171814,938.457886 801.189636,925.537781 813.066956,912.489807 
	C820.969116,903.808594 828.669067,894.943726 836.520081,886.215576 
	C848.565186,872.824829 860.740845,859.550598 872.712219,846.094543 
	C881.809875,835.868591 890.629517,825.395874 899.657043,815.106689 
	C910.421143,802.838379 921.296265,790.667603 932.083008,778.419067 
	C940.237061,769.159912 948.360840,759.873596 956.428589,750.539246 
	C959.136963,747.405701 961.631531,744.087402 964.907349,740.000854 
	C961.726257,740.000854 959.781616,740.000854 957.836914,740.000854 
	C834.899719,740.000854 711.962463,740.005371 589.025269,739.962402 
	C586.990601,739.961731 584.956116,739.384155 582.921570,739.075806 
	C583.110657,736.950500 583.461121,734.825439 583.465027,732.699768 
	C583.541504,691.358459 583.577515,650.017029 584.265015,608.327026 
	C709.861633,607.984924 834.815002,607.991821 959.768372,607.992432 
	C961.098328,607.992432 962.430786,607.936890 963.754028,607.818237 
	C963.876709,607.807190 963.941162,607.146790 963.877930,606.496338 
	C960.752502,602.900757 957.716431,599.652893 954.822449,596.283020 
	C942.949585,582.457642 931.169617,568.552185 919.258545,554.760010 
	C909.906616,543.931030 900.448669,533.192810 890.972717,522.471802 
	C877.778320,507.543945 864.545227,492.650116 851.287170,477.778778 
	C839.772949,464.863434 828.252380,451.953094 816.641479,439.124969 
	C802.909302,423.953247 789.134644,408.819153 775.271912,393.766785 
	C761.943237,379.294312 748.546753,364.882751 735.054626,350.562714 
	C721.416687,336.087952 707.884338,321.499329 693.843201,307.421967 
	C668.824951,282.339142 643.500183,257.560944 618.199219,232.761841 
	C613.512695,228.168304 608.284302,224.132156 603.394958,219.739746 
	C596.540222,213.581711 589.768799,207.330948 582.961670,201.119843 
	C583.137390,198.983002 583.465088,196.846222 583.466370,194.709259 
	C583.495605,147.142166 583.487366,99.575066 583.494324,52.007965 
	C583.494629,49.847595 583.572693,47.687229 584.129211,45.257988 
	C598.348694,52.782001 612.298462,60.178474 625.701721,68.459473 
	C646.477905,81.295776 665.419067,96.653809 683.455933,113.066376 
	C702.461182,130.360153 721.532227,147.611053 739.885986,165.583755 
	C761.605042,186.851852 782.661133,208.800583 803.862610,230.592361 
	C817.107483,244.206039 830.228333,257.946411 843.158325,271.859070 
	C862.195251,292.342682 881.082886,312.966431 899.903748,333.649200 
	C919.684448,355.386841 939.403137,377.182587 958.977234,399.106201 
	C975.244995,417.326508 991.315735,435.723755 1007.380310,454.124146 
	C1029.760376,479.758148 1052.144653,505.389252 1074.357666,531.167664 
	C1096.817383,557.232422 1119.168579,583.392334 1141.369263,609.677917 
	C1151.346924,621.491455 1158.999390,634.698059 1162.773682,649.878479 
	C1163.938599,654.563416 1164.929443,659.291626 1166.000000,664.000000 
	C1166.000000,670.354431 1166.000000,676.708801 1165.628296,683.716553 
	C1164.185913,697.753723 1160.559448,710.529602 1153.394897,721.769897 
	C1146.924316,731.921204 1139.316528,741.406433 1131.647095,750.721680 
	C1118.602173,766.566406 1105.157715,782.083618 1091.801147,797.669922 
	C1079.178101,812.400146 1066.465332,827.053528 1053.767822,841.719666 
	C1042.787964,854.402039 1031.818481,867.093994 1020.763916,879.711243 
	C1006.008911,896.552185 991.192871,913.339844 976.370911,930.121948 
	C965.902466,941.974792 955.430664,953.825439 944.869690,965.595703 
	C932.309875,979.593689 919.665405,993.515869 907.034180,1007.449646 
	C896.945374,1018.578735 886.876404,1029.726562 876.699097,1040.774414 
	C863.702271,1054.883057 850.650635,1068.941895 837.537964,1082.942871 
	C825.873596,1095.397461 814.286255,1107.933228 802.320984,1120.094849 
	C783.346497,1139.380859 764.333252,1158.641479 744.879089,1177.439697 
	C723.210754,1198.377441 701.163757,1218.930054 679.005310,1239.350464 
	C670.698547,1247.005737 661.991638,1254.347046 652.800110,1260.895020 
	C637.544006,1271.763428 621.925415,1282.154053 606.101135,1292.180054 
	C598.874268,1296.758911 590.793762,1299.990234 583.100403,1303.832642 
z"/>
<path fill="#FFFFFF" opacity="1.000000" stroke="none" 
	d="
M1166.000000,663.531372 
	C1164.929443,659.291626 1163.938599,654.563416 1162.773682,649.878479 
	C1158.999390,634.698059 1151.346924,621.491455 1141.369263,609.677917 
	C1119.168579,583.392334 1096.817383,557.232422 1074.357666,531.167664 
	C1052.144653,505.389252 1029.760376,479.758148 1007.380310,454.124146 
	C991.315735,435.723755 975.244995,417.326508 958.977234,399.106201 
	C939.403137,377.182587 919.684448,355.386841 899.903748,333.649200 
	C881.082886,312.966431 862.195251,292.342682 843.158325,271.859070 
	C830.228333,257.946411 817.107483,244.206039 803.862610,230.592361 
	C782.661133,208.800583 761.605042,186.851852 739.885986,165.583755 
	C721.532227,147.611053 702.461182,130.360153 683.455933,113.066376 
	C665.419067,96.653809 646.477905,81.295776 625.701721,68.459473 
	C612.298462,60.178474 598.348694,52.782001 584.291138,44.863884 
	C580.005737,42.358173 576.302124,39.417309 572.098877,37.698566 
	C557.414429,31.694027 542.767822,25.470778 527.714294,20.525597 
	C507.353455,13.836929 486.573517,8.406235 465.183685,6.045022 
	C449.638123,4.328952 434.032898,3.153286 418.227112,1.368337 
	C667.256042,1.000000 916.512024,1.000000 1166.000000,1.000000 
	C1166.000000,221.687500 1166.000000,442.375092 1166.000000,663.531372 
z"/>
<path fill="#FFFFFF" opacity="1.000000" stroke="none" 
	d="
M582.764160,1303.978027 
	C590.793762,1299.990234 598.874268,1296.758911 606.101135,1292.180054 
	C621.925415,1282.154053 637.544006,1271.763428 652.800110,1260.895020 
	C661.991638,1254.347046 670.698547,1247.005737 679.005310,1239.350464 
	C701.163757,1218.930054 723.210754,1198.377441 744.879089,1177.439697 
	C764.333252,1158.641479 783.346497,1139.380859 802.320984,1120.094849 
	C814.286255,1107.933228 825.873596,1095.397461 837.537964,1082.942871 
	C850.650635,1068.941895 863.702271,1054.883057 876.699097,1040.774414 
	C886.876404,1029.726562 896.945374,1018.578735 907.034180,1007.449646 
	C919.665405,993.515869 932.309875,979.593689 944.869690,965.595703 
	C955.430664,953.825439 965.902466,941.974792 976.370911,930.121948 
	C991.192871,913.339844 1006.008911,896.552185 1020.763916,879.711243 
	C1031.818481,867.093994 1042.787964,854.402039 1053.767822,841.719666 
	C1066.465332,827.053528 1079.178101,812.400146 1091.801147,797.669922 
	C1105.157715,782.083618 1118.602173,766.566406 1131.647095,750.721680 
	C1139.316528,741.406433 1146.924316,731.921204 1153.394897,721.769897 
	C1160.559448,710.529602 1164.185913,697.753723 1165.628296,684.184937 
	C1166.000000,904.264709 1166.000000,1124.529419 1166.000000,1345.000000 
	C918.645813,1345.000000 671.291565,1345.000000 423.468689,1345.000000 
	C424.685669,1344.666748 426.365784,1344.075806 428.057831,1344.039429 
	C448.332336,1343.603394 468.261627,1340.490845 488.079407,1336.463501 
	C512.167603,1331.568481 535.614319,1324.552979 558.267212,1314.995361 
	C566.401733,1311.563232 574.378845,1307.758057 582.764160,1303.978027 
z"/>
<path fill="#FFFFFF" opacity="1.000000" stroke="none" 
	d="
M392.531342,1.000001 
	C391.647003,1.333199 390.296539,1.945138 388.940613,1.957468 
	C370.787170,2.122544 352.946716,4.805267 335.072601,7.784301 
	C307.323090,12.409245 280.683990,20.691439 254.746384,31.224815 
	C234.067764,39.622494 214.053741,49.588646 195.527695,62.116455 
	C179.934860,72.660736 164.140671,83.116547 149.766479,95.195297 
	C135.116486,107.505791 121.911774,121.571716 108.401054,135.193192 
	C92.722015,151.000748 79.557823,168.901337 67.242867,187.360916 
	C49.262062,214.313324 34.811199,243.064743 23.861488,273.640350 
	C16.672552,293.714447 11.260608,314.219116 7.234392,335.070862 
	C5.030763,346.483429 4.223795,358.178131 3.048322,369.772095 
	C2.348950,376.670135 2.156768,383.619598 1.368282,390.772980 
	C1.000000,261.072723 1.000000,131.145477 1.000000,1.000000 
	C131.354141,1.000000 261.708405,1.000000 392.531342,1.000001 
z"/>
<path fill="#FFFFFF" opacity="1.000000" stroke="none" 
	d="
M0.999997,969.468628 
	C1.665238,974.291443 2.501255,979.567932 2.965719,984.876953 
	C4.827360,1006.156067 9.162846,1026.952148 14.781549,1047.522705 
	C22.553354,1075.976318 33.989403,1102.939331 48.005852,1128.813721 
	C58.799828,1148.739258 70.987526,1167.847412 85.747734,1185.064087 
	C99.087440,1200.623901 112.525650,1216.242554 127.315460,1230.375244 
	C141.784836,1244.201782 157.643967,1256.671143 173.569656,1268.851562 
	C193.028854,1283.734497 214.389877,1295.695923 236.536835,1306.143311 
	C266.540802,1320.297241 297.732971,1330.834961 330.389893,1337.121582 
	C350.631470,1341.017822 370.938354,1343.782959 391.773193,1344.631836 
	C261.741028,1345.000000 131.482040,1345.000000 1.000000,1345.000000 
	C1.000000,1219.979248 1.000000,1094.958252 0.999997,969.468628 
z"/>
<path fill="#FFFFFF" opacity="1.000000" stroke="none" 
	d="
M1.000001,415.468658 
	C1.333268,416.519684 1.954896,418.039032 1.956563,419.559082 
	C1.981763,442.534088 5.615538,465.096222 10.322175,487.453888 
	C18.016035,524.001526 30.870977,558.802490 48.061958,591.921814 
	C60.841583,616.542419 75.565193,639.986389 93.064606,661.600891 
	C96.055008,665.294556 98.914787,669.093933 101.912529,672.944214 
	C43.337444,745.236450 7.580470,826.849304 1.366810,920.775635 
	C1.000000,752.645752 1.000000,584.291565 1.000001,415.468658 
z"/>
<path fill="#FFFFFF" opacity="1.000000" stroke="none" 
	d="
M582.458862,739.046021 
	C584.956116,739.384155 586.990601,739.961731 589.025269,739.962402 
	C711.962463,740.005371 834.899719,740.000854 957.836914,740.000854 
	C959.781616,740.000854 961.726257,740.000854 964.907349,740.000854 
	C961.631531,744.087402 959.136963,747.405701 956.428589,750.539246 
	C948.360840,759.873596 940.237061,769.159912 932.083008,778.419067 
	C921.296265,790.667603 910.421143,802.838379 899.657043,815.106689 
	C890.629517,825.395874 881.809875,835.868591 872.712219,846.094543 
	C860.740845,859.550598 848.565186,872.824829 836.520081,886.215576 
	C828.669067,894.943726 820.969116,903.808594 813.066956,912.489807 
	C801.189636,925.537781 789.171814,938.457886 777.255371,951.470459 
	C766.178894,963.565857 755.240845,975.789062 744.081116,987.806763 
	C736.785400,995.663269 729.155457,1003.208313 721.761292,1010.974792 
	C711.846741,1021.388672 702.137207,1032.000122 692.117676,1042.311157 
	C679.043518,1055.765503 665.857910,1069.115967 652.519775,1082.308472 
	C642.300842,1092.415649 631.922119,1102.373047 621.339050,1112.097412 
	C609.857849,1122.646851 598.054565,1132.845703 586.407776,1143.215454 
	C585.923462,1143.646606 585.600769,1144.259155 584.558472,1144.952393 
	C583.610840,1145.450073 583.307556,1145.782471 583.004272,1146.114868 
	C583.004211,1146.114868 583.021179,1146.017700 583.069702,1146.025513 
	C568.582214,1156.084839 554.411865,1166.724487 539.422058,1176.046631 
	C518.270874,1189.200562 495.146027,1197.980469 470.974884,1204.029297 
	C455.964386,1207.785645 440.773499,1209.863525 425.339203,1211.168823 
	C394.544342,1213.773438 364.611908,1209.816650 335.057465,1201.532227 
	C305.876526,1193.352295 278.959961,1180.317261 254.242493,1162.928833 
	C244.050690,1155.759155 234.608292,1147.496582 225.037155,1139.477905 
	C205.922058,1123.463501 190.237808,1104.349731 176.364914,1083.785645 
	C157.179886,1055.347168 144.327652,1024.282104 137.811417,990.457642 
	C133.666779,968.943665 132.920563,947.273132 134.271744,925.693848 
	C136.123428,896.120667 143.527252,867.613098 154.886475,840.119202 
	C165.352051,814.788086 178.977173,791.315430 195.365112,769.474304 
	C202.768646,759.607117 211.193130,750.490845 219.427368,741.277893 
	C220.706192,739.847046 223.448578,739.101807 225.518402,739.093445 
	C258.515808,738.960876 291.513885,738.998474 324.511810,739.000244 
	C410.339905,739.004822 496.167999,739.010864 582.458862,739.046021 
z"/>
<path fill="#FFFFFF" opacity="1.000000" stroke="none" 
	d="
M582.656982,200.969620 
	C589.768799,207.330948 596.540222,213.581711 603.394958,219.739746 
	C608.284302,224.132156 613.512695,228.168304 618.199219,232.761841 
	C643.500183,257.560944 668.824951,282.339142 693.843201,307.421967 
	C707.884338,321.499329 721.416687,336.087952 735.054626,350.562714 
	C748.546753,364.882751 761.943237,379.294312 775.271912,393.766785 
	C789.134644,408.819153 802.909302,423.953247 816.641479,439.124969 
	C828.252380,451.953094 839.772949,464.863434 851.287170,477.778778 
	C864.545227,492.650116 877.778320,507.543945 890.972717,522.471802 
	C900.448669,533.192810 909.906616,543.931030 919.258545,554.760010 
	C931.169617,568.552185 942.949585,582.457642 954.822449,596.283020 
	C957.716431,599.652893 960.752502,602.900757 963.413086,606.577576 
	C838.999756,606.966980 714.896545,606.982544 590.793335,607.007080 
	C588.464294,607.007507 586.135254,607.114502 583.806213,607.171753 
	C581.642822,607.114502 579.479492,607.007324 577.316101,607.007141 
	C460.819763,606.999084 344.323395,606.963623 227.827301,607.128174 
	C222.997406,607.135010 219.526352,605.857178 216.712631,602.209778 
	C204.281052,586.094910 190.778564,570.679993 179.667877,553.700378 
	C160.511505,524.425110 146.886551,492.466522 140.115372,457.959198 
	C137.720032,445.752014 136.402786,433.309753 135.090103,420.922180 
	C134.254333,413.035095 133.802780,405.031799 134.093079,397.114166 
	C135.251083,365.531067 141.526428,335.030914 153.990356,305.855316 
	C163.985474,282.458710 176.973312,260.838409 192.719254,240.965912 
	C207.717606,222.036911 224.886566,205.253036 243.985397,190.295593 
	C276.628357,164.730927 313.335419,148.165314 353.601349,139.388123 
	C364.941742,136.916122 376.686707,136.151871 388.290283,135.084763 
	C396.690460,134.312256 405.187134,133.758209 413.599884,134.103317 
	C443.802734,135.342331 473.151520,141.159317 501.361938,152.139542 
	C521.289185,159.895737 540.222107,169.668732 557.720459,182.000214 
	C566.160339,187.947952 574.155701,194.526489 582.656982,200.969620 
z"/>
<path fill="#A161AD" opacity="1.000000" stroke="none" 
	d="
M583.837280,607.361450 
	C586.135254,607.114502 588.464294,607.007507 590.793335,607.007080 
	C714.896545,606.982544 838.999756,606.966980 963.567810,606.869141 
	C963.941162,607.146790 963.876709,607.807190 963.754028,607.818237 
	C962.430786,607.936890 961.098328,607.992432 959.768372,607.992432 
	C834.815002,607.991821 709.861633,607.984924 584.438232,607.950317 
	C583.968262,607.922241 583.868408,607.551086 583.837280,607.361450 
z"/>
<path fill="#D64699" opacity="1.000000" stroke="none" 
	d="
M583.382202,1146.201294 
	C583.307556,1145.782471 583.610840,1145.450073 584.281128,1145.099487 
	C584.352112,1145.483398 584.056152,1145.885498 583.382202,1146.201294 
z"/>
</svg>