<svg version="1.1" viewBox="0.0 0.0 120.0 120.0" fill="currentColor" stroke="none" stroke-linecap="square" stroke-miterlimit="10" xmlns:xlink="http://www.w3.org/1999/xlink" xmlns="http://www.w3.org/2000/svg"><clipPath id="p.0"><path d="m0 0l120.0 0l0 120.0l-120.0 0l0 -120.0z" clip-rule="nonzero"/></clipPath><g clip-path="url(#p.0)"><path fill="currentColor" fill-opacity="0.0" d="m0 0l120.0 0l0 120.0l-120.0 0z" fill-rule="evenodd"/><path fill="#000000" fill-opacity="0.0" d="m4.3385825 40.314743l120.97638 0l0 32.913383l-120.97638 0z" fill-rule="evenodd"/><path fill="currentColor" d="m27.697958 62.275368q0.46875 -0.1875 0.796875 -0.1875q0.65625 0 0.875 0.484375q0.21875 0.46875 0.078125 1.078125q-0.171875 0.875 -0.71875 1.484375q-0.546875 0.59375 -1.59375 1.046875q-1.6875 0.734375 -4.203125 1.15625q-2.515625 0.421875 -4.84375 0.421875q-3.265625 0 -5.359375 -0.75q-2.09375 -0.75 -2.96875 -2.140625q-0.859375 -1.390625 -0.46875 -3.15625q0.484375 -2.296875 2.296875 -3.90625q1.8125 -1.609375 3.390625 -1.984375q-0.171875 -0.046875 -0.8125 -1.28125q-0.640625 -1.234375 -0.3125 -2.703125q0.390625 -1.9375 1.90625 -3.40625q1.53125 -1.484375 3.71875 -2.265625q2.203125 -0.796875 4.59375 -0.796875q3.3125 0 4.71875 1.5q1.40625 1.484375 0.90625 3.84375q-0.328125 1.578125 -1.171875 2.625q-0.828125 1.03125 -2.03125 1.03125q-0.859375 0 -1.328125 -0.453125q-0.46875 -0.453125 -0.28125 -1.28125q0.09375 -0.484375 0.328125 -1.0q0.296875 -0.8125 0.359375 -1.078125q0.140625 -0.71875 -0.296875 -1.15625q-0.421875 -0.4375 -1.84375 -0.4375q-2.046875 0 -3.421875 0.84375q-1.375 0.84375 -1.671875 2.21875q-0.203125 0.984375 0.46875 1.625q0.6875 0.640625 2.734375 0.71875q0.75 0.015625 1.03125 0.40625q0.28125 0.375 0.125 1.078125q-0.421875 1.984375 -2.25 2.0q-2.046875 0.0625 -3.46875 0.578125q-1.40625 0.5 -2.140625 1.25q-0.734375 0.734375 -0.90625 1.5625q-0.28125 1.296875 0.859375 2.0q1.140625 0.703125 4.21875 0.703125q2.0625 0 4.46875 -0.484375q2.421875 -0.5 4.21875 -1.1875zm14.493452 -1.0625q0.59375 0 0.78125 0.484375q0.203125 0.46875 0.046875 1.109375q-0.21875 1.140625 -0.921875 1.78125q-1.3125 1.296875 -2.828125 2.234375q-1.5 0.9375 -2.828125 0.9375q-2.234375 0 -2.671875 -1.875q-0.890625 0.90625 -1.8593731 1.390625q-0.96875 0.484375 -2.125 0.484375q-1.765625 0 -2.625 -1.296875q-0.84375 -1.3125 -0.40625 -3.328125q0.4375 -2.09375 1.703125 -3.890625q1.265625 -1.796875 3.09375 -2.953125q1.8281231 -1.15625 3.562498 -1.328125q1.46875 -4.71875 3.625 -8.3125q2.171875 -3.609375 4.59375 -3.609375q1.328125 0 1.921875 1.15625q0.59375 1.15625 0.140625 3.296875q-0.609375 2.890625 -2.828125 6.734375q-2.21875 3.84375 -5.359375 7.78125q-0.1875 1.28125 -0.046875 1.734375q0.15625 0.453125 0.40625 0.453125q0.5625 0 1.34375 -0.5625q0.78125 -0.5625 2.25 -1.96875q0.484375 -0.453125 1.03125 -0.453125zm0.328125 -14.90625q-0.234375 0 -1.015625 1.59375q-0.78125 1.59375 -1.703125 4.328125q-0.921875 2.734375 -2.09375 5.640625q3.78125 -6.328125 4.578125 -10.0q0.1875 -0.90625 0.203125 -1.296875q0.03125 -0.390625 0.03125 -0.265625zm-11.312498 18.109375q0.359375 0 0.8593731 -0.34375q0.5 -0.34375 1.328125 -1.265625q0.046875 -1.25 0.421875 -2.984375q0.125 -0.625 0.296875 -1.34375q-0.71875 0.21875 -1.890625 1.5625q-1.1562481 1.34375 -1.5156231 3.0q-0.28125 1.375 0.5 1.375zm21.71588 -3.203125q0.59375 0 0.78125 0.484375q0.203125 0.46875 0.046875 1.109375q-0.21875 1.140625 -0.921875 1.78125q-1.21875 1.1875 -3.203125 2.1875q-1.96875 0.984375 -4.015625 0.984375q-2.84375 0 -4.125 -1.59375q-1.28125 -1.59375 -0.703125 -4.265625q0.375 -1.828125 1.484375 -3.40625q1.109375 -1.578125 2.671875 -2.5q1.5625 -0.9375 3.328125 -0.9375q1.65625 0 2.46875 1.015625q0.828125 1.015625 0.453125 2.6875q-0.375 1.890625 -1.984375 3.21875q-1.609375 1.3125 -4.421875 1.96875q0.15625 0.5 1.65625 0.5q1.046875 0 2.59375 -0.765625q1.546875 -0.765625 2.859375 -2.015625q0.484375 -0.453125 1.03125 -0.453125zm-5.609375 -2.90625q-0.75 0 -1.546875 0.984375q-0.78125 0.984375 -1.09375 2.46875l-0.34375 -0.09375q1.359375 -0.6875 2.28125 -1.328125q0.921875 -0.640625 1.09375 -1.421875q0.0625 -0.328125 -0.046875 -0.46875q-0.09375 -0.140625 -0.34375 -0.140625zm5.610214 9.453125q-1.296875 0 -1.5 -1.21875q-0.203125 -1.21875 0.28125 -3.5q0.703125 -3.359375 2.296875 -6.375q0.4375 -0.828125 1.109375 -1.21875q0.6875 -0.390625 1.734375 -0.390625q0.625 0 0.953125 0.234375q0.34375 0.234375 0.203125 0.84375q-0.078125 0.4375 -0.765625 1.90625q-0.46875 1.0 -0.78125 1.75q-0.3125 0.734375 -1.015625 1.734375q0.984375 -2.421875 2.34375 -3.828125q1.375 -1.40625 2.5625 -2.015625q1.1875 -0.625 2.125 -0.625q2.1250038 0 1.6718788 2.109375q-0.20312881 1.03125 -1.3281288 3.65625q-0.921875 2.171875 -1.078125 2.828125q-0.109375 0.546875 0.140625 0.546875q0.375 0 1.140625 -0.578125q0.765625 -0.578125 2.2187538 -1.953125q0.484375 -0.453125 1.03125 -0.453125q0.59375 0 0.78125 0.484375q0.203125 0.46875 0.046875 1.109375q-0.21875 1.140625 -0.921875 1.78125q-1.390625 1.375 -2.9062538 2.28125q-1.5 0.890625 -3.203125 0.890625q-1.5 0 -2.109375 -0.90625q-0.59375 -0.90625 -0.25 -2.46875q0.15625 -0.75 0.90625 -2.609375q0.65625 -1.5625 0.78125 -2.125q0.1875 -0.109375 0.1875 0.0625q-0.15625 0 -0.859375 0.765625q-0.703125 0.765625 -1.609375 2.140625q-0.90625 1.375 -1.59375 2.875q-0.5625 1.28125 -1.109375 1.78125q-0.546875 0.484375 -1.484375 0.484375zm26.156528 -8.6875q0.609375 0 0.765625 0.515625q0.171875 0.515625 0.03125 1.125q-0.3125 1.453125 -1.3125 1.734375q-1.671875 0.546875 -3.3125 0.609375q-0.875 2.0 -2.671875 3.359375q-1.78125 1.34375 -3.703125 1.34375q-1.65625 0 -2.6875 -0.8125q-1.015625 -0.828125 -1.359375 -2.15625q-0.328125 -1.328125 0.015625 -2.8125q0.421875 -2.015625 1.53125 -3.578125q1.109375 -1.578125 2.65625 -2.46875q1.546875 -0.90625 3.21875 -0.90625q2.140625 0 3.125 1.484375q1.0 1.46875 0.8125 3.09375q0.703125 -0.046875 2.421875 -0.453125q0.25 -0.078125 0.46875 -0.078125zm-9.421875 5.21875q0.65625 0 1.296875 -0.578125q0.65625 -0.578125 0.984375 -1.453125q-0.546875 -0.421875 -0.828125 -1.390625q-0.265625 -0.984375 -0.03125 -2.03125q0.09375 -0.4375 0.5 -0.65625l0 0.3125q-0.84375 0 -1.625 0.875q-0.78125 0.875 -1.140625 2.53125q-0.265625 1.25 0.03125 1.828125q0.3125 0.5625 0.8125 0.5625zm21.39508 -5.140625q0.125 -0.015625 0.328125 -0.015625q0.609375 0 0.84375 0.421875q0.25 0.40625 0.125 0.984375q-0.171875 0.890625 -0.640625 1.421875q-0.46875 0.515625 -1.234375 0.75q-1.296875 0.390625 -2.671875 0.390625q-1.171875 0 -1.921875 -0.25q-0.8125 1.0 -1.984375 2.28125q-1.34375 1.46875 -2.265625 2.046875q-0.921875 0.578125 -1.96875 0.578125q-1.28125 0 -1.796875 -0.96875q-0.5 -0.984375 -0.25 -2.828125q0.4375 -3.5625 1.03125 -6.25l0.171875 -0.890625q0.25 -1.0 0.859375 -1.390625q0.625 -0.40625 1.59375 -0.40625q0.828125 0 1.203125 0.4375q0.390625 0.421875 0.203125 1.296875q-0.609375 2.890625 -1.078125 6.265625q1.140625 -1.28125 2.03125 -2.4375q-0.1875 -0.640625 0.0625 -1.75q0.203125 -0.9375 0.78125 -1.8125q0.59375 -0.875 1.453125 -1.4375q0.859375 -0.5625 1.796875 -0.5625q0.9375 0 1.390625 0.671875q0.46875 0.671875 0.203125 1.828125q-0.234375 1.203125 -0.796875 2.09375q0.1875 -0.015625 1.8125 -0.34375l0.71875 -0.125zm0.934845 8.609375q-1.65625 0 -2.40625 -1.296875q-0.75 -1.3125 -0.328125 -3.296875q0.453125 -2.109375 1.8125 -3.984375q1.375 -1.890625 3.234375 -3.03125q1.875 -1.15625 3.734375 -1.15625q0.78125 0 1.0 0.359375q0.234375 0.34375 0.234375 0.546875q0.078125 -0.015625 0.703125 -0.015625q0.78125 0 1.171875 0.453125q0.390625 0.4375 0.21875 1.1875q-0.125 0.609375 -0.6875 2.078125q-0.59375 1.53125 -1.046875 2.921875q-0.4375 1.390625 -0.8125 3.125q-0.21875 1.109375 -0.828125 1.609375q-0.59375 0.5 -1.609375 0.5q-1.046875 0 -1.5 -0.5625q-0.4375 -0.5625 -0.203125 -1.6875l0.5 -0.3125q-1.046875 2.5625 -3.1875 2.5625zm1.53125 -3.34375q0.53125 0 1.234375 -0.890625q0.71875 -0.890625 1.703125 -3.359375l0.796875 -2.015625q-0.3125 0.015625 -1.296875 0.734375q-0.96875 0.703125 -1.734375 1.921875q-0.765625 1.203125 -1.0625 2.546875q-0.125 0.609375 0 0.84375q0.125 0.21875 0.359375 0.21875z" fill-rule="nonzero"/></g></svg>